<?xml version="1.0" encoding="UTF-8" standalone="no"?>
<!-- Created with Inkscape (http://www.inkscape.org/) -->
<svg
   xmlns:svg="http://www.w3.org/2000/svg"
   xmlns="http://www.w3.org/2000/svg"
   version="1.0"
   width="186.00192"
   height="200"
   id="svg2842"
   xml:space="preserve"><defs
     id="defs2846" /><path
     d="m 44.2901,44.962635 4.356927,5.633375 3.197667,-2.473513 -7.095741,-9.171425 -2.50441,1.935 c 0.994308,1.546101 -0.433062,3.406275 -2.194422,4.727925 l 1.272632,1.645701 2.967347,-2.297063"
     id="path2864"
     style="fill:#9c9a9b;fill-opacity:1;fill-rule:nonzero;stroke:none" /><path
     d="m 55.855375,39.671148 c 0.220616,-0.897538 0.856932,-1.4284 1.815492,-1.921988 1.39826,-0.718275 2.554456,-0.433825 3.072038,0.573513 0.51656,1.007325 -0.14861,2.169387 -1.466183,2.847587 -1.019331,0.523713 -2.461766,0.665438 -2.900701,-0.139675 l -3.395049,1.745525 c 1.468225,2.369088 4.306879,1.995 7.343935,0.435875 3.236735,-1.662537 5.061164,-4.206012 3.754316,-6.75255 -1.102063,-2.146425 -3.543657,-2.425762 -6.401462,-0.959587 -1.059165,0.543625 -1.89618,1.273912 -2.336904,2.136462 l -0.03984,0.02013 -0.446852,-2.146675 6.174973,-3.169825 -1.094148,-2.13135 -8.792498,4.513187 1.635986,6.530413 3.07689,-1.581075"
     id="path2866"
     style="fill:#9c9a9b;fill-opacity:1;fill-rule:nonzero;stroke:none" /><path
     d="m 129.511,36.105273 c -1.06224,-0.535463 -2.14437,-0.784925 -3.10191,-0.6353 l -0.0397,-0.02 1.47513,-1.620925 6.1941,3.12695 1.08011,-2.137488 -8.82032,-4.455487 -4.32068,5.161762 3.0889,1.560913 c 0.85489,-0.352113 1.66075,-0.149625 2.62238,0.334262 1.40336,0.710113 1.85226,1.815225 1.3426,2.822563 -0.5107,1.012437 -1.84333,1.157212 -3.16602,0.488975 -1.0224,-0.516813 -1.98581,-1.601 -1.59283,-2.426775 l -3.40832,-1.72255 c -1.05227,2.583312 0.9177,4.657975 3.96497,6.198975 3.24746,1.640837 6.37848,1.620912 7.67027,-0.932513 1.087,-2.154587 -0.12075,-4.294112 -2.98855,-5.743437"
     id="path2868"
     style="fill:#9c9a9b;fill-opacity:1;fill-rule:nonzero;stroke:none" /><path
     d="m 143.15502,45.469223 c -0.64143,0.827825 -1.94112,0.894737 -3.22166,-0.09463 -1.24277,-0.962375 -1.4713,-2.209225 -0.80893,-3.065137 0.58933,-0.765013 1.94289,-0.790037 3.07994,0.08987 1.29766,1.002487 1.5811,2.252138 0.95065,3.069987 z m 0.40089,-4.927363 c -2.57615,-1.9927 -5.78302,-2.323887 -7.30003,-0.363862 -1.38266,1.790212 -0.72134,4.423562 1.73151,6.320512 1.06529,0.826038 2.43469,1.439388 3.53395,1.155175 l 0.0358,0.02675 c -1.00632,1.157213 -2.4587,1.823413 -4.0924,0.5587 -0.37407,-0.28625 -0.71317,-0.655475 -0.90365,-1.034412 -0.20147,-0.364113 -0.25842,-0.768063 -0.10675,-1.112013 l -2.82486,-2.184463 c -0.88655,2.029726 0.12762,4.094438 2.38489,5.839963 3.94582,3.047263 7.18052,1.910225 9.22632,-0.733088 1.90205,-2.463562 1.92199,-5.685475 -1.68475,-8.473325"
     id="path2870"
     style="fill:#9c9a9b;fill-opacity:1;fill-rule:nonzero;stroke:none" /><path
     d="m 15.473307,88.096785 c 2.034834,0.673088 3.528848,-1.288712 4.714918,-3.336563 1.193986,-2.064725 2.079519,-4.209099 2.949474,-3.921825 0.739986,0.24435 0.609248,1.386513 0.327095,2.2391 -0.404975,1.216975 -1.167942,2.408913 -2.173485,2.001888 l -1.313487,3.964975 c 2.551393,0.822725 4.650062,-1.862212 5.652284,-4.892625 0.949623,-2.8596 1.094148,-6.523013 -1.368385,-7.338075 -2.069814,-0.6861 -3.55285,1.3546 -4.73177,3.37335 -1.187092,2.044787 -2.093819,4.159288 -3.09119,3.8253 -0.835739,-0.276275 -0.741006,-1.61785 -0.344969,-2.811838 0.554607,-1.6817 1.350513,-2.649187 2.704088,-2.295025 l 1.315531,-3.967025 c -2.89866,-0.932512 -5.058101,1.780513 -6.219147,5.2736 -1.107169,3.346288 -1.279527,6.937188 1.579043,7.884763"
     id="path2872"
     style="fill:#9c9a9b;fill-opacity:1;fill-rule:nonzero;stroke:none" /><path
     d="m 14.166715,108.08328 0.31918,-4.16439 c -1.350513,-0.26224 -2.093563,-1.44627 -1.94393,-3.39607 0.209381,-2.68621 2.046577,-3.58093 3.80615,-3.44432 1.758296,0.13762 3.436157,1.30173 3.229583,3.98794 -0.133546,1.74732 -0.861783,2.95535 -2.073643,3.08404 l -0.322244,4.16415 c 2.862656,0.11286 4.777733,-3.50281 5.041247,-6.95709 0.374844,-4.83263 -2.120627,-8.177892 -5.553721,-8.443192 -3.434371,-0.264275 -6.41474,2.65915 -6.7875419,7.495612 -0.3112638,4.0546 1.2476079,7.21958 4.2849199,7.67332"
     id="path2874"
     style="fill:#9c9a9b;fill-opacity:1;fill-rule:nonzero;stroke:none" /><path
     d="m 23.310056,121.49571 -4.265002,0.73131 -0.933537,-5.4212 4.263982,-0.73309 -0.709089,-4.11946 -11.7080112,2.01696 0.7093432,4.11945 4.821397,-0.83293 0.933791,5.42401 -4.82063,0.83293 0.71011,4.1164 11.705968,-2.01696 -0.708322,-4.11742"
     id="path2876"
     style="fill:#9c9a9b;fill-opacity:1;fill-rule:nonzero;stroke:none" /><path
     d="m 24.128942,141.60223 c -1.608665,0.72109 -3.638645,0.50073 -4.743772,-1.96002 -1.102062,-2.4587 0.0858,-4.12456 1.694715,-4.84565 1.609941,-0.71803 3.640687,-0.49869 4.743772,1.96001 1.103084,2.45973 -0.0817,4.12431 -1.694715,4.84566 z m 4.125586,-5.93495 c -2.068793,-4.611 -5.739357,-6.09224 -8.884168,-4.68275 -3.142002,1.41129 -4.478469,5.13675 -2.410953,9.74979 2.06675,4.61022 5.736292,6.08636 8.879315,4.67993 3.144811,-1.40822 4.481534,-5.13368 2.415806,-9.74697"
     id="path2878"
     style="fill:#9c9a9b;fill-opacity:1;fill-rule:nonzero;stroke:none" /><path
     d="m 35.626551,148.80853 -2.531476,-3.32636 -9.450774,7.1966 7.060759,9.27612 2.116541,-1.61096 -4.52724,-5.95257 7.33219,-5.58283"
     id="path2880"
     style="fill:#9c9a9b;fill-opacity:1;fill-rule:nonzero;stroke:none" /><path
     d="m 43.283791,167.61535 -2.758986,-2.37189 4.089581,-1.96997 0.03498,0.0278 -1.365577,4.31403 z m -10.398354,-3.09706 3.256651,2.79473 2.153567,-0.95754 4.243045,3.64554 -0.637338,2.25724 3.305423,2.83967 3.188983,-12.91859 -3.21886,-2.76588 -12.291471,5.10483"
     id="path2882"
     style="fill:#9c9a9b;fill-opacity:1;fill-rule:nonzero;stroke:none" /><path
     d="m 78.276834,178.91123 c 1.649775,0.34114 2.844782,1.21697 2.769966,2.23911 l 4.090347,0.848 c 0.231343,-2.99544 -2.976284,-5.00218 -6.231913,-5.67859 -4.750922,-0.98435 -8.387524,1.06734 -9.086655,4.43864 -0.698109,3.3713 1.822387,6.69791 6.573053,7.68329 1.452394,0.3013 3.381259,0.29415 4.690917,-0.60645 l -0.02094,1.31962 2.63821,0.54873 1.321656,-6.37184 -6.598075,-1.36634 -0.465747,2.24728 2.859592,0.59341 c -0.439701,1.01244 -1.949803,1.43121 -3.972635,1.0104 -2.638208,-0.54669 -3.293675,-2.48475 -2.935428,-4.21011 0.359012,-1.72561 1.727398,-3.24388 4.36765,-2.69515"
     id="path2884"
     style="fill:#9c9a9b;fill-opacity:1;fill-rule:nonzero;stroke:none" /><path
     d="m 95.499498,187.25969 -0.11465,-2.25902 7.850812,-0.39911 -0.12157,-2.39384 -7.851049,0.40089 -0.104688,-2.07646 8.590027,-0.43893 -0.12562,-2.47658 -12.763368,0.64832 0.603633,11.86428 12.987545,-0.65827 -0.13458,-2.65813 -8.816501,0.44685"
     id="path2886"
     style="fill:#9c9a9b;fill-opacity:1;fill-rule:nonzero;stroke:none" /><path
     d="m 117.54586,173.93612 2.17655,6.99003 -0.0421,0.0118 -7.49457,-5.33311 -4.09648,1.27672 3.53191,11.34287 3.75228,-1.16922 -2.20132,-7.06867 0.043,-0.0161 7.51961,5.41405 4.0975,-1.27672 -3.53396,-11.34082 -3.75228,1.16922"
     id="path2888"
     style="fill:#9c9a9b;fill-opacity:1;fill-rule:nonzero;stroke:none" /><path
     d="m 134.04437,176.33788 -1.18991,-1.92503 6.68693,-4.13248 -1.25781,-2.03662 -6.68873,4.1312 -1.0944,-1.77029 7.32018,-4.52035 -1.3025,-2.10965 -10.87303,6.71758 6.24391,10.10624 11.0625,-6.83453 -1.39723,-2.26413 -7.50991,4.63806"
     id="path2890"
     style="fill:#9c9a9b;fill-opacity:1;fill-rule:nonzero;stroke:none" /><path
     d="m 146.45865,154.61555 4.05742,8.45647 -0.0319,0.0319 -8.48609,-3.99178 -3.06922,3.09399 11.99322,4.77876 3.38535,-3.41216 -4.77773,-12.04915 -3.07101,3.09196"
     id="path2892"
     style="fill:#9c9a9b;fill-opacity:1;fill-rule:nonzero;stroke:none" /><path
     d="m 161.47489,150.06227 -1.935,-1.17382 4.07759,-6.72089 -2.04988,-1.24174 -4.07555,6.72064 -1.7782,-1.0801 4.45931,-7.35313 -2.11935,-1.28667 -6.62616,10.92895 10.15705,6.16017 6.74465,-11.12251 -2.27717,-1.37834 -4.57728,7.54744"
     id="path2894"
     style="fill:#9c9a9b;fill-opacity:1;fill-rule:nonzero;stroke:none" /><path
     d="m 162.81647,124.29172 7.00995,2.11144 -0.0125,0.0429 -8.61785,3.22167 -1.23765,4.10643 11.37555,3.42927 1.13526,-3.76326 -7.09089,-2.13646 0.0141,-0.0429 8.69651,-3.19895 1.23586,-4.10746 -11.37376,-3.42619 -1.13501,3.7635"
     id="path2896"
     style="fill:#9c9a9b;fill-opacity:1;fill-rule:nonzero;stroke:none" /><path
     d="m 173.37722,103.04817 c -2.14438,-0.0947 -3.04598,2.20233 -3.63046,4.49455 -0.58448,2.31112 -0.85284,4.61508 -1.7685,4.57525 -0.78213,-0.035 -0.96369,-1.16692 -0.92358,-2.06471 0.0556,-1.27978 0.46473,-2.63336 1.54406,-2.51667 l 0.18538,-4.1741 c -2.67805,-0.0968 -3.96575,3.0631 -4.1095,6.24877 -0.1335,3.00744 0.72517,6.57331 3.31767,6.68796 2.17834,0.0978 3.04804,-2.26924 3.63252,-4.53541 0.58551,-2.29197 0.88578,-4.57116 1.93295,-4.52622 0.88196,0.0398 1.15517,1.35638 1.09926,2.6142 -0.0779,1.77234 -0.57939,2.91935 -1.97994,2.94743 l -0.18359,4.17334 c 3.04242,0.1126 4.38297,-3.08915 4.54639,-6.76763 0.15754,-3.52604 -0.65419,-7.02194 -3.66266,-7.15676"
     id="path2898"
     style="fill:#9c9a9b;fill-opacity:1;fill-rule:nonzero;stroke:none" /><path
     d="m 164.55996,98.20558 11.75882,-1.69548 -0.59649,-4.134527 -11.75881,1.6937 0.59648,4.136307"
     id="path2900"
     style="fill:#9c9a9b;fill-opacity:1;fill-rule:nonzero;stroke:none" /><path
     d="m 166.43316,88.264285 c 2.06165,-0.708325 2.00392,-3.229838 1.71871,-5.553713 -0.29544,-2.344062 -0.85081,-4.57525 0.14146,-4.917412 0.83395,-0.286238 1.57215,0.837788 1.97891,2.027675 0.57657,1.680937 0.52958,2.929575 -0.76092,3.468337 l 1.35435,3.952726 c 2.87262,-1.009376 2.95049,-4.478475 1.75371,-7.964425 -1.14421,-3.333513 -3.1798,-6.290888 -6.02765,-5.316513 -2.02971,0.696325 -2.02665,3.163963 -1.73454,5.510825 0.30233,2.367038 0.89573,4.608188 0.0299,4.904388 -0.73897,0.252537 -1.32447,-0.733088 -1.61583,-1.579813 -0.41493,-1.212888 -0.52957,-2.62135 0.51683,-2.91065 l -1.35766,-3.9517 c -2.52434,0.889613 -2.56825,4.301 -1.53385,7.31815 0.97642,2.847587 3.08097,5.855012 5.5366,5.012125"
     id="path2902"
     style="fill:#9c9a9b;fill-opacity:1;fill-rule:nonzero;stroke:none" /><path
     d="m 55.88142,174.9483 c -0.942473,1.24991 -0.690194,3.02735 0.558436,3.96983 1.250928,0.94554 3.027352,0.69326 3.968039,-0.55563 0.944513,-1.25169 0.695043,-3.0271 -0.553587,-3.96957 -1.253991,-0.94273 -3.030416,-0.69326 -3.972888,0.55537"
     id="path2904"
     style="fill:#9c9a9b;fill-opacity:1;fill-rule:nonzero;stroke:none" /><path
     d="m 32.691121,61.762448 c 0.922556,-1.266763 0.646274,-3.037325 -0.618442,-3.959875 -1.266759,-0.92255 -3.037312,-0.648313 -3.961909,0.61845 -0.922557,1.26675 -0.646275,3.03705 0.618441,3.959862 1.266759,0.92255 3.039099,0.64525 3.96191,-0.618437"
     id="path2906"
     style="fill:#9c9a9b;fill-opacity:1;fill-rule:nonzero;stroke:none" /><path
     d="m 153.24416,58.421022 c -0.92281,1.26675 -0.64628,3.03705 0.62022,3.959863 1.26498,0.92255 3.03731,0.64525 3.95987,-0.618438 0.92281,-1.266762 0.64653,-3.037325 -0.61844,-3.959875 -1.26677,-0.92255 -3.03707,-0.648312 -3.96165,0.61845"
     id="path2908"
     style="fill:#9c9a9b;fill-opacity:1;fill-rule:nonzero;stroke:none" /><path
     d="m 100.19757,27.51041 -2.301161,3.605713 5.632621,0 0,-1.745538 -2.21944,0.01 1.22999,-1.83515 -1.22999,-1.895163 2.17934,-0.01362 0,-1.72255 -5.592521,0 2.301151,3.59575"
     id="path2910"
     style="fill:#9c9a9b;fill-opacity:1;fill-rule:nonzero;stroke:none" /><path
     d="m 88.023806,29.380535 -1.388557,0.015 0,-3.7584 1.291782,0.01363 0,-1.735562 -4.633207,0 0,1.735562 1.28693,-0.01363 0,3.7584 -1.371705,-0.015 0,1.735588 4.814757,0 0,-1.735588"
     id="path2912"
     style="fill:#9c9a9b;fill-opacity:1;fill-rule:nonzero;stroke:none" /><path
     d="m 94.581794,26.453285 -2.932366,0 0.013,-2.563387 -2.149482,0 0,7.226225 2.149482,0 -0.013,-2.872626 2.932366,0 0,2.872626 2.144631,0 0,-7.226225 -2.144631,0 0,2.563387"
     id="path2914"
     style="fill:#9c9a9b;fill-opacity:1;fill-rule:nonzero;stroke:none" /><path
     d="m 92.212972,19.615698 c 0,-0.543638 0.391953,-0.887575 0.960603,-0.887575 0.510687,0 0.89268,0.388887 0.89268,0.887575 l 0.02681,2.553425 4.007873,0 0,-2.144375 -2.456661,0 -0.01,-0.548725 c -0.01506,-1.537925 -0.725175,-2.777888 -2.475812,-2.777888 -1.344383,0 -2.274088,0.753263 -2.438785,2.044788 -0.02988,0.27425 -0.02988,0.563562 -0.02988,0.844937 l 0,0.436888 -2.453595,0 -0.003,2.144375 3.974932,0 0.0048,-2.553425"
     id="path2916"
     style="fill:#9c9a9b;fill-opacity:1;fill-rule:nonzero;stroke:none" /><path
     d="m 93.173575,32.811848 c -0.711133,0 -1.289741,0.5786 -1.289741,1.291775 0,0.710125 0.578608,1.288475 1.289741,1.288475 0.713175,0 1.291526,-0.57835 1.291526,-1.288475 0,-0.713175 -0.578351,-1.291775 -1.291526,-1.291775"
     id="path2918"
     style="fill:#9c9a9b;fill-opacity:1;fill-rule:nonzero;stroke:none" /><path
     d="m 93.000962,193.89479 c -48.222901,0 -87.4551544,-39.2343 -87.4551544,-87.4572 0,-42.66048 30.7111864,-78.263792 71.1831344,-85.914143 l 1.218754,1.501163 -10.507897,4.006588 10.50279,4.017837 -7.094719,8.727375 11.104634,-1.770288 -0.368207,2.290938 c -32.1383,5.449037 -56.698261,33.474013 -56.698261,67.14053 0,37.55848 30.556449,68.11672 68.114926,68.11672 37.558468,0 68.114928,-30.55824 68.114928,-68.11672 0,-33.648655 -24.52906,-61.65958 -56.64132,-67.132355 l -0.30334,-2.249325 10.81635,1.735575 -6.80568,-8.84025 10.2237,-3.904975 -10.34038,-4.216225 1.08213,-1.331613 c 40.53094,7.60055 71.30876,43.233988 71.30876,85.939168 0,48.2229 -39.232,87.4572 -87.455148,87.4572 z M 80.171993,56.490873 l 1.572915,-2.672938 -6.500278,0 0.760157,-2.779912 c 0,-1.33955 -1.084444,-2.426788 -2.425765,-2.426788 -0.326327,0 -0.635548,0.06688 -0.917703,0.1846 0.05387,-0.24435 0.08962,-0.476975 0.08962,-0.653412 0,-0.882725 -0.715984,-1.601013 -1.598707,-1.601013 -0.882722,0 -1.601003,0.718288 -1.601003,1.601013 0,0.176437 0.03702,0.409062 0.08989,0.653412 -0.283433,-0.11775 -0.59061,-0.1846 -0.914641,-0.1846 -1.341575,0 -2.426784,1.087238 -2.426784,2.426788 l 0.758115,2.779912 -1.712845,0 c -1.176879,0 -2.157397,0.837788 -2.378781,1.944963 -0.356967,-0.09988 -0.731046,-0.159588 -1.117126,-0.159588 -2.20438,0 -3.989741,1.78535 -3.989741,3.989738 0,0.68815 0.176441,1.336462 0.480811,1.900012 0.67615,-1.24685 1.992956,-2.09255 3.505867,-2.09255 1.359704,0 2.556498,0.681263 3.276568,1.718463 0.08478,0.119625 0.162653,0.244375 0.232618,0.374087 0.206317,0.380963 0.324031,0.810963 0.395782,1.253725 l -8.069111,0 c -2.20438,0 -3.989741,-1.787387 -3.989741,-3.986675 l 0,2.5685 c 0,2.204125 1.785361,3.989738 3.989741,3.989738 l 7.648306,0 c -0.681257,1.221825 -1.983,2.04965 -3.484163,2.04965 -0.0766,0 -0.154483,-0.005 -0.234407,-0.01 0.721348,1.042312 1.923249,1.725612 3.286528,1.725612 1.703652,0 3.155025,-1.0704 3.725462,-2.573362 l 10.80537,0 c 2.201318,0 3.989744,1.785375 3.989744,3.986687 0,1.0252 0.0047,2.468663 -1.017544,3.563825 l -0.99533,1.49325 -6.805415,10.502788 c -1.243012,1.823412 -3.723419,2.292212 -5.545806,1.04845 -1.8183,-1.23995 -2.297069,-3.798238 -1.055335,-5.618588 1.582875,-0.880675 2.204381,-2.703062 1.909204,-4.598225 -0.367183,-2.34405 -2.50875,-3.957812 -4.84259,-3.72035 L 63.7243,73.138215 c -8.533069,0 -14.905678,-5.77025 -15.787378,-13.94915 9.00571,-8.593087 20.45225,-14.637575 33.181635,-16.986487 l -0.946559,5.904837 8.673764,-7.041875 2.926491,7.525738 0,11.646987 L 80.171998,56.49084 z M 45.141926,149.29726 c 0.0858,-0.36208 0.305391,-0.66824 0.620486,-0.86766 l 8.343604,-4.71287 2.334861,2.40074 -0.03294,0.0281 0.574524,0.52857 0.428977,0.43893 0.02604,-0.0199 2.980371,2.73779 c 0.519623,0.52371 0.519623,1.41154 -0.02502,1.95491 -0.263258,0.26147 -0.614357,0.40906 -0.987413,0.40906 l -1.67582,0 2.121649,2.11654 0.287262,0 c 1.477163,0.003 2.86572,-0.57554 3.911863,-1.61785 1.045377,-1.04717 1.620921,-2.43368 1.620921,-3.91493 0,-2.94232 -2.314179,-5.33132 -5.213604,-5.50087 -0.651382,-0.65317 -1.581852,-1.58083 -2.044791,-2.04479 1.32753,-0.84263 24.449142,-15.51493 26.602709,-16.87948 -0.72415,8.08724 -7.701412,17.57784 -14.284423,23.26511 -3.012287,3.01331 -4.169249,6.37363 -4.169249,9.28608 0,2.57156 0.900597,4.79075 2.222255,6.11241 1.159004,1.15696 2.922663,1.50602 4.390887,0.86076 l 0.927408,-0.40701 -0.717005,-0.71803 c -1.167176,-1.16718 -1.582108,-3.20175 -1.582108,-4.71798 0,-3.04216 0.785181,-4.58827 2.255193,-6.18417 0.311264,0.30922 0.96673,0.96469 1.885203,1.8852 -0.622273,1.68068 -0.921536,3.37641 -0.921536,5.00218 0,3.25155 1.149046,6.19898 3.048036,8.09924 0.397059,0.39604 4.608184,3.88991 6.379757,3.29649 l 1.267782,-0.42898 -1.08036,-0.78799 c -0.618442,-0.45374 -2.610122,-2.77584 -3.286527,-4.19223 -0.540561,-1.13194 -0.862805,-2.49062 -0.862805,-3.92692 0,-2.31393 0.946558,-4.99503 3.04012,-7.08681 0.110825,-0.16444 4.724877,-11.55021 7.078889,-17.03601 0.002,0.1246 0.0041,1.07704 0.0041,1.07704 0.01481,1.29178 0.02885,2.5685 0.02885,3.8202 0,6.62514 -0.401911,12.508 -3.31538,15.42249 -1.810386,1.81038 -5.176835,2.76792 -5.176835,2.76792 l 0.872764,1.02725 c 0.08478,0.0978 1.485334,2.25417 3.749464,2.32695 0.539542,0.0202 0.964432,-0.34395 1.435286,-0.56636 0.117725,5.1896 1.095169,7.22444 2.839675,9.17935 -17.406256,-0.51375 -33.124949,-7.85794 -44.554379,-19.45309 l -1.17407,-1.92708 c -0.139672,-0.22241 -0.210404,-0.47366 -0.210404,-0.73309 0,-0.10469 0.012,-0.21245 0.03574,-0.31918 z m -5.067802,-5.80498 c 0,-0.40906 0.162398,-0.84289 0.469832,-1.16692 0.318159,-0.35416 0.753008,-0.55359 1.227691,-0.5735 l 3.979785,0.01 c -1.988871,0.45374 -3.703504,1.76033 -4.644954,3.62562 -0.487707,-0.70832 -0.981541,-1.50627 -1.032355,-1.84026 0,-0.0199 0,-0.0398 0,-0.0549 z M 32.540468,91.94966 c 0,0 8.085197,-1.509075 16.885612,-3.14685 -0.06791,0.454 -0.06384,0.922812 0.11465,1.381413 0.1167,0.304362 0.301305,0.553574 0.500729,0.783137 l -16.632317,6.47525 c -2.324904,1.41945 -2.997222,4.277 -1.655647,6.44359 0.648317,1.05023 1.66867,1.78332 2.870572,2.06752 1.201901,0.28445 2.443637,0.0799 3.493099,-0.5684 l 14.612289,-9.03175 c 0.101875,0.44864 0.273472,0.88272 0.60644,1.24659 0.216531,0.23951 0.479791,0.40906 0.749177,0.55077 l -13.173167,12.042 c -1.654625,2.16429 -1.251693,5.06883 0.779054,6.60804 2.033811,1.53793 4.940131,1.13398 6.479342,-0.89779 l 10.483894,-13.85443 c 0.242577,0.37919 0.547711,0.72032 0.980518,0.93762 0.230576,0.11465 0.473919,0.14963 0.714197,0.19151 0.05183,0.038 0.09984,0.0779 0.150652,0.11286 l -7.305122,14.71213 c -0.743305,2.54143 0.638359,5.02695 3.016117,5.71025 2.378015,0.67538 4.86455,-0.70628 5.543763,-3.082 l 4.216232,-14.74711 c 1.814217,0.54363 3.733378,0.84289 5.72327,0.84289 1.617857,0 2.682128,-0.13482 4.189167,-0.49894 -0.01405,2.66323 -0.02784,5.19164 -0.02885,5.42605 -0.354167,0.38403 -13.397625,14.55764 -13.397625,14.55764 -2.298092,1.8852 -3.131022,1.98504 -4.622994,0.49383 l -0.435105,-0.43382 -4.075539,3.19664 0.552819,0.55359 c 1.53487,1.53614 2.981136,2.59326 4.93528,2.78273 -2.835846,1.49121 -5.253693,2.76512 -5.677564,2.98752 -0.439701,-0.454 -2.552414,-2.64332 -3.666477,-3.79823 -0.166484,-2.90249 -2.559563,-5.21871 -5.504952,-5.21871 -3.050078,0 -5.532783,2.48066 -5.532783,5.53074 l 0,0.2893 2.119607,2.11961 0,-1.67582 c 0,-0.37383 0.14478,-0.72314 0.408039,-0.98742 0.544647,-0.54362 1.432221,-0.54362 1.976869,0 0,0 1.631901,1.77541 2.717876,2.95739 l -0.01063,0.012 0.436637,0.45196 c 0.3082,0.33399 0.521667,0.56354 0.521667,0.56354 l 0.01405,-0.0151 1.228968,1.26191 -1.591045,-0.003 c -1.049207,-0.8697 -2.355033,-1.33366 -3.727506,-1.27876 -1.47895,0.0597 -2.845547,0.68815 -3.849047,1.7754 -0.726964,0.78799 -1.190923,1.75064 -1.372472,2.78299 -6.110116,-9.9395 -9.643048,-21.62453 -9.643048,-34.12232 0,-5.24169 0.638358,-10.33655 1.810131,-15.225875 0.815055,0.698113 1.866305,0.962388 3.071271,0.73795 z m 6.075389,-21.679175 c 1.914055,-2.867512 4.049493,-5.575687 6.379502,-8.104088 1.175092,4.144226 3.747422,7.869688 7.126638,10.542875 -0.464725,0.281138 -0.865615,0.678188 -1.078061,1.226938 -0.134818,0.34905 -0.178741,0.704988 -0.160611,1.0571 L 38.615857,70.270485 z M 49.2813,79.99551 c -0.344969,0.458837 -0.588311,1.002475 -0.588311,1.620912 0,0.433838 0.120525,0.827826 0.299263,1.191938 l -16.905784,0.03187 c 0.743304,-1.912275 1.571128,-3.777313 2.484748,-5.59765 L 49.2813,79.995442 z m 49.370158,48.44555 c 0,-2.38185 1.720512,-4.34901 3.981832,-4.75297 0.19048,2.82487 2.51948,5.06704 5.39413,5.06704 l 10.86205,0 c 2.87262,0 5.20366,-2.23911 5.39414,-5.06704 2.25212,0.41391 3.96471,2.37904 3.96471,4.75297 0,9.1464 -6.30188,14.67229 -14.79691,16.77377 -8.49629,-2.10148 -14.799952,-7.62737 -14.799952,-16.77377 z m 9.759992,20.9111 c -1.89234,0.74024 -3.23877,2.57054 -3.23877,4.72283 0,2.80291 2.27409,5.077 5.07904,5.077 l 6.39636,0 c 2.80495,0 5.07904,-2.27409 5.07904,-5.077 0,-2.15229 -1.34541,-3.98259 -3.23776,-4.72283 8.65589,-3.0151 14.87785,-11.22618 14.87785,-20.9111 0,-5.01214 -3.71448,-9.12164 -8.53308,-9.81796 l 0,-3.69253 -7.58754,-6.99181 0,-14.56275 4.37379,0 0,6.15429 7.40088,0 0,-4.653127 5.43805,0 0,4.653127 7.40112,0 0,-16.452802 -7.40113,0 0,3.979787 -5.43805,0 0,-3.979787 -6.13896,0 0,-5.046875 6.13896,0 0,-3.977738 5.43805,0 0,3.977738 7.40113,0 0,-14.91665 c 10.24847,11.5354 16.48268,26.711237 16.48268,43.323617 0,35.51369 -28.481,64.47909 -63.798086,65.30411 l 0,-36.70282 c 2.090498,6.68795 7.264276,12.01416 13.866436,14.31328 z M 104.8655,42.222535 c 13.87919,2.558538 26.23758,9.502613 35.56858,19.355288 l -5.97479,0 0,4.458549 -5.43805,0 0,-4.458549 -7.40087,0 0,6.156337 -4.37379,0 c 0,0 0.0299,-9.372887 0.0299,-9.467875 0,-2.1094 -1.71643,-3.82505 -3.82709,-3.82505 -2.10965,0 -3.82606,1.71565 -3.82606,3.82505 0,0.09487 0.0299,49.672475 0.0299,49.672475 l -7.58748,6.99181 0,3.69253 c -3.336312,0.48183 -6.109343,2.62135 -7.520627,5.53891 l 0,-75.670537 2.538372,-7.345988 8.574935,6.971913 -0.79284,-5.894863 z m -11.744781,-28.8556 c 7.033951,0 12.755171,5.7202 12.755171,12.752113 0,7.031899 -5.72122,12.752112 -12.755171,12.752112 -7.032927,0 -12.754154,-5.720213 -12.754154,-12.752112 0,-7.031913 5.721227,-12.752113 12.754154,-12.752113 z m 19.968641,2.278925 1.90306,-2.343787 -11.08241,1.630624 L 105.66346,3.9758975 96.930955,11.05276 92.919252,0.55966 88.909593,11.05786 80.193952,3.9659475 81.967313,15.072372 70.857827,13.29211 72.790011,15.670898 C 31.197872,24.927097 1.3037109e-6,62.101535 1.3037109e-6,106.43759 c 0,51.2832 41.7208336962891,93.00275 93.0009606962891,93.00275 51.281148,0 93.000958,-41.71955 93.000958,-93.00275 0,-44.380993 -31.25763,-81.583255 -72.91257,-90.79173"
     id="path2920"
     style="fill:#9c9a9b;fill-opacity:1;fill-rule:nonzero;stroke:none" /></svg>